HIERARCHY
ROOT Hips
{
    OFFSET   0.000000   0.000000   0.000000
    CHANNELS 6 Xposition Yposition Zposition Zrotation Xrotation Yrotation
    JOINT Chest
    {
        OFFSET   0.000000   8.007230   0.000000
        CHANNELS 3 Zrotation Xrotation Yrotation
        JOINT Chest2
        {
            OFFSET   0.000000  22.077100   0.000000
            CHANNELS 3 Zrotation Xrotation Yrotation
            JOINT Neck
            {
                OFFSET   0.000000  23.254800   0.000000
                CHANNELS 3 Zrotation Xrotation Yrotation
                JOINT Head
                {
                    OFFSET   0.000010  14.370000   1.956600
                    CHANNELS 3 Zrotation Xrotation Yrotation
                    End Site
                    {
                        OFFSET   0.000000  19.566000   0.000000
                    }
                }
            }
            JOINT LeftCollar
            {
                OFFSET   3.911900  19.017000  -0.467062
                CHANNELS 3 Zrotation Xrotation Yrotation
                JOINT LeftShoulder
                {
                    OFFSET  10.383700   0.000000   0.000000
                    CHANNELS 3 Zrotation Xrotation Yrotation
                    JOINT LeftElbow
                    {
                        OFFSET  26.662100   0.001193   0.000835
                        CHANNELS 3 Zrotation Xrotation Yrotation
                        JOINT LeftWrist
                        {
                            OFFSET  28.869000  -0.000058  -0.000075
                            CHANNELS 3 Zrotation Xrotation Yrotation
                            JOINT LeftFinger0
                            {
                                OFFSET   2.044660  -2.323460   3.252850
                                CHANNELS 3 Zrotation Xrotation Yrotation
                                JOINT LeftFinger01
                                {
                                    OFFSET   3.088130   0.000000   0.000000
                                    CHANNELS 3 Zrotation Xrotation Yrotation
                                    JOINT LeftFinger02
                                    {
                                        OFFSET   2.639450   0.000000   0.000000
                                        CHANNELS 3 Zrotation Xrotation Yrotation
                                        End Site
                                        {
                                            OFFSET   2.582190   0.000000   0.000000
                                        }
                                    }
                                }
                            }
                            JOINT LeftFinger1
                            {
                                OFFSET   8.364480   0.000000   3.252850
                                CHANNELS 3 Zrotation Xrotation Yrotation
                                JOINT LeftFinger11
                                {
                                    OFFSET   4.646920   0.000000   0.000000
                                    CHANNELS 3 Zrotation Xrotation Yrotation
                                    JOINT LeftFinger12
                                    {
                                        OFFSET   2.323460   0.000000   0.000000
                                        CHANNELS 3 Zrotation Xrotation Yrotation
                                        End Site
                                        {
                                            OFFSET   2.273050   0.000000   0.000000
                                        }
                                    }
                                }
                            }
                            JOINT LeftFinger2
                            {
                                OFFSET   8.364490   0.000016   1.078090
                                CHANNELS 3 Zrotation Xrotation Yrotation
                                JOINT LeftFinger21
                                {
                                    OFFSET   5.111620   0.000000   0.000000
                                    CHANNELS 3 Zrotation Xrotation Yrotation
                                    JOINT LeftFinger22
                                    {
                                        OFFSET   2.788150   0.000012   0.000000
                                        CHANNELS 3 Zrotation Xrotation Yrotation
                                        End Site
                                        {
                                            OFFSET   2.727660   0.000000   0.000000
                                        }
                                    }
                                }
                            }
                            JOINT LeftFinger3
                            {
                                OFFSET   7.899780   0.000014  -1.078090
                                CHANNELS 3 Zrotation Xrotation Yrotation
                                JOINT LeftFinger31
                                {
                                    OFFSET   4.646930   0.000000   0.000000
                                    CHANNELS 3 Zrotation Xrotation Yrotation
                                    JOINT LeftFinger32
                                    {
                                        OFFSET   2.323470   0.000000   0.000000
                                        CHANNELS 3 Zrotation Xrotation Yrotation
                                        End Site
                                        {
                                            OFFSET   2.273050   0.000000   0.000000
                                        }
                                    }
                                }
                            }
                            JOINT LeftFinger4
                            {
                                OFFSET   7.435090   0.000000  -3.252850
                                CHANNELS 3 Zrotation Xrotation Yrotation
                                JOINT LeftFinger41
                                {
                                    OFFSET   3.717550   0.000000   0.000000
                                    CHANNELS 3 Zrotation Xrotation Yrotation
                                    JOINT LeftFinger42
                                    {
                                        OFFSET   1.858770   0.000000   0.000000
                                        CHANNELS 3 Zrotation Xrotation Yrotation
                                        End Site
                                        {
                                            OFFSET   1.818440   0.000000   0.000000
                                        }
                                    }
                                }
                            }
                        }
                    }
                }
            }
            JOINT RightCollar
            {
                OFFSET  -3.911900  19.017000  -0.467063
                CHANNELS 3 Zrotation Xrotation Yrotation
                JOINT RightShoulder
                {
                    OFFSET -10.383700   0.000023   0.000000
                    CHANNELS 3 Zrotation Xrotation Yrotation
                    JOINT RightElbow
                    {
                        OFFSET -26.662100   0.001246   0.001011
                        CHANNELS 3 Zrotation Xrotation Yrotation
                        JOINT RightWrist
                        {
                            OFFSET -28.869000  -0.000026  -0.000078
                            CHANNELS 3 Zrotation Xrotation Yrotation
                            JOINT RightFinger0
                            {
                                OFFSET  -2.044660  -2.323490   3.252850
                                CHANNELS 3 Zrotation Xrotation Yrotation
                                JOINT RightFinger01
                                {
                                    OFFSET  -3.088130   0.000000   0.000000
                                    CHANNELS 3 Zrotation Xrotation Yrotation
                                    JOINT RightFinger02
                                    {
                                        OFFSET  -2.639460   0.000000   0.000000
                                        CHANNELS 3 Zrotation Xrotation Yrotation
                                        End Site
                                        {
                                            OFFSET  -2.582190   0.000000   0.000000
                                        }
                                    }
                                }
                            }
                            JOINT RightFinger1
                            {
                                OFFSET  -8.364480   0.000000   3.252850
                                CHANNELS 3 Zrotation Xrotation Yrotation
                                JOINT RightFinger11
                                {
                                    OFFSET  -4.646920   0.000000   0.000000
                                    CHANNELS 3 Zrotation Xrotation Yrotation
                                    JOINT RightFinger12
                                    {
                                        OFFSET  -2.323470   0.000000   0.000000
                                        CHANNELS 3 Zrotation Xrotation Yrotation
                                        End Site
                                        {
                                            OFFSET  -2.273050   0.000000   0.000000
                                        }
                                    }
                                }
                            }
                            JOINT RightFinger2
                            {
                                OFFSET  -8.364480   0.000000   1.078090
                                CHANNELS 3 Zrotation Xrotation Yrotation
                                JOINT RightFinger21
                                {
                                    OFFSET  -5.111620   0.000000   0.000000
                                    CHANNELS 3 Zrotation Xrotation Yrotation
                                    JOINT RightFinger22
                                    {
                                        OFFSET  -2.788160   0.000000   0.000000
                                        CHANNELS 3 Zrotation Xrotation Yrotation
                                        End Site
                                        {
                                            OFFSET  -2.727660   0.000000   0.000000
                                        }
                                    }
                                }
                            }
                            JOINT RightFinger3
                            {
                                OFFSET  -7.899780   0.000000  -1.078090
                                CHANNELS 3 Zrotation Xrotation Yrotation
                                JOINT RightFinger31
                                {
                                    OFFSET  -4.646930   0.000000   0.000000
                                    CHANNELS 3 Zrotation Xrotation Yrotation
                                    JOINT RightFinger32
                                    {
                                        OFFSET  -2.323470   0.000000   0.000000
                                        CHANNELS 3 Zrotation Xrotation Yrotation
                                        End Site
                                        {
                                            OFFSET  -2.273050   0.000000   0.000000
                                        }
                                    }
                                }
                            }
                            JOINT RightFinger4
                            {
                                OFFSET  -7.435090   0.000000  -3.252850
                                CHANNELS 3 Zrotation Xrotation Yrotation
                                JOINT RightFinger41
                                {
                                    OFFSET  -3.717550   0.000000   0.000000
                                    CHANNELS 3 Zrotation Xrotation Yrotation
                                    JOINT RightFinger42
                                    {
                                        OFFSET  -1.858760   0.000000   0.000000
                                        CHANNELS 3 Zrotation Xrotation Yrotation
                                        End Site
                                        {
                                            OFFSET  -1.818440   0.000000   0.000000
                                        }
                                    }
                                }
                            }
                        }
                    }
                }
            }
        }
    }
    JOINT LeftHip
    {
        OFFSET   9.783010   0.000000   0.000000
        CHANNELS 3 Zrotation Xrotation Yrotation
        JOINT LeftKnee
        {
            OFFSET   0.000073 -41.789100   0.001749
            CHANNELS 3 Zrotation Xrotation Yrotation
            JOINT LeftAnkle
            {
                OFFSET   0.000111 -41.133200  -0.000179
                CHANNELS 3 Zrotation Xrotation Yrotation
                JOINT LeftToe
                {
                    OFFSET   0.000000  -6.358960  14.674500
                    CHANNELS 3 Zrotation Xrotation Yrotation
                    End Site
                    {
                        OFFSET   0.000000   0.000000   3.913200
                    }
                }
            }
        }
    }
    JOINT RightHip
    {
        OFFSET  -9.783010   0.000000   0.000000
        CHANNELS 3 Zrotation Xrotation Yrotation
        JOINT RightKnee
        {
            OFFSET   0.000424 -41.789200   0.005205
            CHANNELS 3 Zrotation Xrotation Yrotation
            JOINT RightAnkle
            {
                OFFSET   0.000000 -41.133200  -0.000155
                CHANNELS 3 Zrotation Xrotation Yrotation
                JOINT RightToe
                {
                    OFFSET   0.000000  -6.358960  14.674500
                    CHANNELS 3 Zrotation Xrotation Yrotation
                    End Site
                    {
                        OFFSET   0.000000   0.000000   3.913200
                    }
                }
            }
        }
    }
}
MOTION
Frames: 4
Frame Time:   0.016667
 -1.292610  89.454600   0.009423  -2.827910  -7.938340  -3.943580   1.238910   5.286950   1.353280   2.366750  10.600700   2.607710   1.142280  -1.628730   0.030372   1.880840  -3.298860   4.842920  -7.099060   0.866642  -3.001270 -69.311700  22.064600 -10.027800  -2.314480  -4.286090 -12.453600   5.558070  -7.338860  11.648900  40.567300  28.529900 -65.448600 -23.117000   0.001743   0.001656  -6.558530  -0.010905   0.003053 -31.367600   8.550490 -13.706200 -26.506700   0.003895   0.003590 -18.554700   0.004297   0.000525 -28.558200   2.226470  -4.083850 -37.857000   0.006934  -0.004424 -25.212800   0.008347  -0.004072 -28.766100   0.099062  -0.180428 -40.917200  -0.001508  -0.001524 -27.250800   0.003648   0.002503 -37.340200  -0.339143   0.444420 -56.012300  -0.000796  -0.000805 -37.304200   0.000378  -0.000907   5.073450  -2.983600  14.550500  41.633800  13.565800  75.120700 -11.349300 -31.221800  89.877000  27.995400 -18.111700  35.769800 -23.582300  39.949100  63.656400  71.618800  -0.000760   0.002064  41.038300   0.001798  -0.001954  21.493000   7.878910  19.212100  18.653900   0.014752   0.001830  13.057700   0.011055  -0.003695  23.876500   0.851560   1.922070  23.867100   0.012731  -0.000094  15.895500   0.002685   0.005243  63.464000  -5.788640  -2.879140  63.606400  -0.001094   0.006001  47.704800  -0.002490   0.009213  70.297100  -9.433550  -3.355510 105.861000   0.004778   0.011530  70.503700   0.009663  -0.001729   3.372140  11.705800   1.377260   1.095030   0.598850   1.292590  -3.822820  -4.071180   9.631040   0.000000   0.000000  -0.000000   1.331790   5.957530  -4.580160   1.041720   5.581120   4.736690  -5.003680  -3.273190   3.104060  -0.000000   0.000000  -0.000000
 -1.298340  89.454900   0.014900  -2.802770  -7.990160  -3.771820   1.205820   5.304280   1.353250   2.299720  10.634600   2.611630   1.125000  -1.632520   0.030140   1.852210  -3.306390   5.117810  -7.055770   0.897739  -3.036940 -69.297300  22.020000 -10.023200  -2.325100  -4.255030 -12.562900   5.570140  -7.384240  11.608100  40.510100  28.447400 -65.389000 -23.141100   0.001736   0.001669  -6.570560  -0.010968   0.003056 -31.366100   8.545340 -13.698100 -26.503600   0.003877   0.003600 -18.556800   0.004309   0.000561 -28.559000   2.215220  -4.062620 -37.906600   0.007007  -0.004439 -25.245800   0.008402  -0.004095 -28.766500   0.075846  -0.138126 -41.001800  -0.001529  -0.001517 -27.307100   0.003679   0.002513 -37.392000  -0.352604   0.461265 -56.090200  -0.000873  -0.000767 -37.356000   0.000312  -0.000942   5.061600  -2.969600  14.415100  41.927200  13.065400  74.757100 -11.823600 -31.779000  89.735900  27.412500 -15.572200  34.200600 -22.813800  39.971500  62.923600  73.387300  -0.000753   0.002571  42.216100   0.001777  -0.001942  22.176200   7.605920  18.043100  19.094400   0.018947   0.001818  13.366100   0.013564  -0.003686  24.250400   0.490908   1.109920  24.212300   0.014437  -0.000104  16.125400   0.002671   0.005294  63.249500  -5.878710  -2.961770  63.400000  -0.001093   0.008180  47.550000  -0.002508   0.010876  70.013400  -9.419860  -3.401480 105.441000   0.005189   0.017630  70.223800   0.010777  -0.001745   3.377270  11.740200   1.343940   1.095230   0.588486   1.239990  -3.830750  -4.052690   9.543730   0.000000   0.000000   0.000000   1.340820   6.027550  -4.615550   1.048310   5.578030   4.660070  -5.011670  -3.289020   3.042300   0.000000   0.000000   0.000000
 -1.304650  89.455400   0.019176  -2.777040  -8.044470  -3.594870   1.172460   5.324880   1.352820   2.232340  10.675100   2.612500   1.101230  -1.638280   0.029902   1.813130  -3.318720   5.400760  -7.016550   0.925210  -3.070990 -69.277500  21.973000 -10.011700  -2.338880  -4.225340 -12.674600   5.580240  -7.416270  11.567500  40.453100  28.364800 -65.329700 -23.156900   0.001729   0.001681  -6.578450  -0.011031   0.003063 -31.366000   8.534030 -13.681800 -26.500500   0.003860   0.003612 -18.558000   0.004321   0.000597 -28.558600   2.205050  -4.043520 -37.943100   0.007079  -0.004456 -25.270000   0.008454  -0.004118 -28.766800   0.054746  -0.099694 -41.061300  -0.001551  -0.001510 -27.346800   0.003709   0.002523 -37.427900  -0.361923   0.472935 -56.144100  -0.000952  -0.000730 -37.391900   0.000247  -0.000978   5.047890  -2.955510  14.284000  42.304500  12.550800  74.369300 -12.350900 -32.309100  89.611200  26.758300 -12.331700  32.236000 -21.750900  39.852500  61.932300  75.546900  -0.000741   0.002938  43.654300   0.001755  -0.001928  22.890600   7.276290  16.776600  19.552600   0.021803   0.001807  13.686800   0.015400  -0.003679  24.620300   0.064771   0.177266  24.557200   0.015381  -0.000108  16.355100   0.002651   0.005343  63.037800  -5.897960  -2.985020  63.190900  -0.001090   0.011750  47.393200  -0.002526   0.012375  69.724200  -9.406290  -3.448180 105.013000   0.005736   0.024167  69.938500   0.011836  -0.001761   3.382920  11.784900   1.310360   1.095480   0.564935   1.183430  -3.838530  -4.018010   9.455980   0.000000   0.000000  -0.000000   1.350290   6.096830  -4.652440   1.053380   5.578090   4.585000  -5.019690  -3.307120   2.974310  -0.000000   0.000000  -0.000000
 -1.310980  89.456300   0.023071  -2.750650  -8.101630  -3.416900   1.140750   5.349210   1.347630   2.168510  10.722900   2.604500   1.067720  -1.642360   0.029775   1.757630  -3.327910   5.687700  -6.985630   0.946622  -3.094690 -69.254300  21.929000  -9.990930  -2.352850  -4.190950 -12.783800   5.604090  -7.415520  11.538000  40.514000  28.447900 -65.385400 -23.143500   0.001729   0.001702  -6.571720  -0.011105   0.003086 -31.372200   8.519060 -13.655600 -26.503300   0.003847   0.003627 -18.559700   0.004328   0.000631 -28.556200   2.201380  -4.037230 -37.907500   0.007150  -0.004473 -25.246300   0.008504  -0.004143 -28.767100   0.048288  -0.087997 -41.033300  -0.001572  -0.001504 -27.328200   0.003740   0.002533 -37.411800  -0.357736   0.467713 -56.120000  -0.001028  -0.000692 -37.375900   0.000179  -0.001014   5.031480  -2.957470  14.165900  42.765500  12.047900  73.967700 -12.945900 -32.793400  89.523800  26.179400  -8.237460  29.836300 -20.416400  39.837500  60.712800  78.378700  -0.000736   0.002897  45.540300   0.001732  -0.001914  23.550500   6.891040  15.498500  19.969600   0.020476   0.001804  13.978700   0.014357  -0.003673  24.926400  -0.401591  -0.812861  24.849600   0.014439  -0.000115  16.549800   0.002640   0.005392  62.839300  -5.910950  -3.015290  62.993900  -0.001082   0.015567  47.245400  -0.002547   0.013626  69.479200  -9.395370  -3.487530 104.650000   0.006391   0.027762  69.696800   0.012931  -0.001773   3.387520  11.836100   1.282560   1.096020   0.529026   1.117880  -3.842750  -3.981470   9.371300   0.000000   0.000000  -0.000000   1.360030   6.163570  -4.691600   1.055500   5.586080   4.508580  -5.027560  -3.328220   2.907250  -0.000000   0.000000   0.000000
